<?xml version="1.0" ?><!DOCTYPE svg  PUBLIC '-//W3C//DTD SVG 1.1//EN'  'http://www.w3.org/Graphics/SVG/1.1/DTD/svg11.dtd'><svg enable-background="new 0 0 100 100" id="Layer_1" version="1.1" viewBox="0 0 100 100" xml:space="preserve" xmlns="http://www.w3.org/2000/svg" xmlns:xlink="http://www.w3.org/1999/xlink"><g><path d="M83.1,60.1C80.8,63,70.8,73,43.9,73C18.7,73,8.9,64.3,6,60.8c-0.2-0.2-0.6,0-0.5,0.3l1,4.2c2.4,7.7,8.9,12.6,16.1,16.3   c3.9,2,12.5,4,21.8,4c12.7,0,21-2.7,26.8-6.1c4.6-2.6,8.4-6.3,10.1-11.3l2.2-7.9C83.5,60.1,83.2,60,83.1,60.1z"/><path d="M76.9,62.8c-1.5-3.2-8-13-32.5-13c-24.8,0-30.1,10.6-31.2,14c7.2,4.4,18.4,7.3,31.1,7.3C57.9,71,69.8,67.7,76.9,62.8z"/><path d="M44.4,33.5C22.6,33.5,5,41.9,5,52.2c0,3.8,2.4,7.4,6.6,10.4c1.5-4.4,7.8-14.8,32.9-14.8c24.8,0,32,9.7,34,13.8   c3.3-2.7,5.2-5.9,5.2-9.3C83.7,41.9,66.1,33.5,44.4,33.5z"/><path d="M85.9,15.4C82.3,17,77.8,21.3,72,27.8c-1.7,1.9-3.9,3.4-6.3,4.4l-3.1,1.3c0,0,9.8,2,15.7,6.6c0,0-0.5-4.6,2.2-8.4   C83.2,27.7,95,24.7,95,18.2C95,15.4,91.4,13.1,85.9,15.4z M88.5,20.8c-1.2,0.7-2.5,0.6-2.9-0.1c-0.4-0.7,0.3-1.8,1.5-2.5   c1.2-0.7,2.5-0.6,2.9,0.1C90.4,19,89.7,20.2,88.5,20.8z"/></g></svg>