<?xml version="1.0" standalone="no"?>
<!DOCTYPE svg PUBLIC "-//W3C//DTD SVG 20010904//EN"
 "http://www.w3.org/TR/2001/REC-SVG-20010904/DTD/svg10.dtd">
<svg version="1.0" xmlns="http://www.w3.org/2000/svg"
 width="700.000000pt" height="700.000000pt" viewBox="0 0 700.000000 700.000000"
 preserveAspectRatio="xMidYMid meet">
<metadata>
Created by potrace 1.11, written by Peter Selinger 2001-2013
</metadata>
<g transform="translate(0.000000,700.000000) scale(0.100000,-0.100000)"
fill="#000000" stroke="none">
<path d="M6235 5983 c-111 -13 -239 -62 -354 -135 -175 -110 -398 -313 -661
-600 -309 -338 -423 -423 -720 -543 -52 -21 -99 -41 -103 -45 -4 -4 18 -13 50
-20 153 -35 453 -135 593 -197 140 -62 308 -153 378 -205 30 -22 55 -38 57
-36 1 1 5 50 8 108 10 174 56 320 142 450 68 102 141 160 385 305 290 172 389
243 487 342 221 226 195 488 -57 562 -45 14 -149 21 -205 14z m42 -243 c89
-56 -34 -208 -183 -227 -47 -6 -77 7 -100 41 -13 21 -13 28 -1 59 45 107 202
178 284 127z"/>
<path d="M3048 4655 c-2 -2 -82 -5 -178 -9 -190 -6 -289 -14 -430 -31 -14 -1
-52 -6 -85 -10 -33 -4 -69 -9 -80 -11 -11 -2 -60 -11 -110 -19 -49 -8 -101
-17 -115 -20 -26 -5 -304 -72 -330 -79 -574 -165 -983 -397 -1204 -685 -43
-56 -115 -178 -120 -203 -1 -7 -11 -38 -20 -68 -26 -79 -28 -236 -6 -325 49
-190 182 -377 375 -525 l68 -51 22 54 c131 324 473 616 905 772 88 32 292 93
335 101 17 3 59 12 95 20 70 16 306 53 380 59 258 22 299 24 565 24 347 1 501
-9 810 -54 22 -3 75 -13 118 -21 42 -9 90 -18 105 -20 49 -9 256 -66 343 -95
419 -140 751 -372 935 -654 22 -33 46 -72 53 -87 l14 -27 27 19 c16 11 60 55
100 97 231 247 295 525 183 793 -233 559 -1221 988 -2403 1045 -150 7 -349 13
-352 10z"/>
<path d="M3098 3515 c-2 -2 -88 -5 -193 -8 -104 -4 -206 -8 -225 -11 -19 -2
-69 -7 -110 -11 -41 -3 -84 -8 -95 -10 -21 -5 -74 -12 -139 -21 -68 -8 -265
-53 -375 -85 -326 -95 -609 -254 -792 -445 -68 -72 -149 -176 -149 -193 0 -5
-3 -11 -8 -13 -9 -4 -69 -128 -77 -160 -5 -21 -1 -29 27 -45 152 -92 438 -214
638 -275 125 -37 296 -82 370 -97 143 -29 258 -50 305 -55 22 -3 58 -8 80 -12
66 -10 86 -13 175 -19 47 -4 96 -8 110 -11 138 -22 804 -22 925 0 11 2 56 7
100 11 44 4 87 8 95 10 8 1 40 6 70 10 97 12 122 16 255 41 158 30 163 31 239
50 34 8 70 17 81 19 56 12 265 78 380 120 194 70 475 209 574 284 l24 18 -41
69 c-189 324 -578 571 -1122 715 -58 15 -281 60 -319 64 -20 2 -70 9 -111 15
-41 6 -100 13 -130 16 -30 2 -73 7 -95 9 -22 3 -119 8 -215 11 -96 3 -192 6
-212 8 -21 2 -39 2 -40 1z"/>
<path d="M5725 2697 c-179 -184 -427 -344 -740 -477 -55 -23 -104 -43 -110
-45 -5 -1 -22 -7 -37 -13 -64 -27 -356 -113 -431 -128 -10 -2 -27 -6 -37 -9
-26 -8 -48 -13 -200 -40 -167 -30 -182 -32 -250 -40 -30 -4 -66 -8 -80 -10
-73 -10 -151 -17 -340 -31 -134 -11 -719 -11 -870 0 -125 8 -163 12 -332 32
-97 11 -317 45 -378 59 -14 3 -38 8 -55 11 -16 2 -93 21 -169 40 -507 128
-928 344 -1197 615 -88 89 -104 100 -111 77 -5 -15 54 -268 83 -356 97 -294
334 -588 664 -823 193 -138 464 -289 615 -341 80 -28 268 -84 310 -92 14 -2
57 -11 95 -19 39 -9 88 -18 110 -21 22 -3 51 -8 65 -11 53 -11 70 -14 165 -25
54 -6 105 -13 115 -15 100 -19 726 -28 900 -12 47 4 111 10 143 12 49 4 123
14 307 41 19 3 72 14 117 25 44 10 96 21 115 24 102 18 395 116 533 178 178
81 359 186 486 283 97 73 252 231 313 319 86 123 172 310 201 440 2 11 29 108
59 215 30 107 56 201 58 209 9 39 -36 12 -117 -72z"/>
</g>
</svg>
